# xmcd CD database file
#
# Track frame offsets:
#	150
#	17309
#	34780
#	46107
#	67523
#	80324
#	94618
#	109475
#	125326
#
# Disc length: 1807 seconds
#
# Revision: 0
# Processed by: cddbd v1.5.2PL0 Copyright (c) Steve Scherf et al.
# Submitted via: CDex 1.70beta2
#
DISCID=5c070d09
DTITLE=Bud Powell - THE BEST OF Bud Powell
DYEAR=1900
DGENRE=Jazz
TTITLE0=Tea For Two
TTITLE1=Just One Of Those Things
TTITLE2=Parisian Thoroughfare
TTITLE3=Lady Bird
TTITLE4=Sweet Georgia Brown
TTITLE5=April In Paris
TTITLE6=Tenderly
TTITLE7=Star Eyes
TTITLE8=Dance Of The Infidels
EXTD=
EXTT0=
EXTT1=
EXTT2=
EXTT3=
EXTT4=
EXTT5=
EXTT6=
EXTT7=
EXTT8=
PLAYORDER=
